# xmcd
#
# Track frame offsets: 
#        150
#        11617
#        29215
#        48507
#        62745
#        78755
#        94152
#        106260
#        123565
#        144452
#
# Disc length: 2123 seconds
#
# Revision: 4
# Processed by: cddbd v1.5.1PL0 Copyright (c) Steve Scherf et al.
# Submitted via: ExactAudioCopy v0.95b1
#
DISCID=8408490a
DTITLE=Dolly Parton - I Will Always Love You and Other Greatest Hits
DYEAR=1900
DGENRE=Country
TTITLE0=Why'd You Come In Here Lookin' Like That
TTITLE1=Yellow Roses
TTITLE2=White Limozeen
TTITLE3=Eagle When She Flies
TTITLE4=Romeo
TTITLE5=Rockin' Years (& Ricky Van Shelton)
TTITLE6=To Daddy
TTITLE7=Silver And Gold
TTITLE8=He's Alive
TTITLE9=I Will Always Love You (&Vince Gill)
EXTD=
EXTT0=
EXTT1=
EXTT2=
EXTT3=
EXTT4=
EXTT5=Duet with Ricky Van Shelton
EXTT6=
EXTT7=
EXTT8=
EXTT9=
PLAYORDER=
